<svg fill="#fff" height="20" width="20" xmlns="http://www.w3.org/2000/svg" viewBox="0 0 511.947 511.947" stroke="#fff"><path d="M407.553 248.453L161.9 3.12a10.623 10.623 0 00-15.04 0l-42.453 42.347a10.623 10.623 0 000 15.04l195.733 195.52-195.733 195.52a10.623 10.623 0 000 15.04l42.347 42.24a10.623 10.623 0 0015.04 0l245.653-245.333c4.266-4.054 4.266-10.881.106-15.041zM154.327 486.32l-27.307-27.2L322.753 263.6a10.623 10.623 0 000-15.04L127.127 53.04l27.307-27.2L384.94 256.027 154.327 486.32z"/></svg>