<svg width="220" height="36" fill="none" xmlns="http://www.w3.org/2000/svg"><g clip-path="url(#clip0_341_656)"><path d="M18.036 5.45L35.674.343l-5.146 17.378 5.146 17.33-17.638-5.057L.348 35.052l5.196-17.33L.348.344l17.688 5.105z" fill="#fff"/></g><path d="M49.023 30.522V2.954h11.144c1.71 0 3.233.341 4.57 1.024 1.362.656 2.418 1.602 3.166 2.836.775 1.207 1.163 2.665 1.163 4.371v.512c0 1.707-.401 3.177-1.203 4.41a7.636 7.636 0 01-3.167 2.837c-1.336.656-2.846.984-4.53.984h-6.813v10.594h-4.33zm4.33-14.453h6.373c1.523 0 2.74-.394 3.648-1.182.908-.788 1.363-1.864 1.363-3.23v-.393c0-1.392-.455-2.481-1.363-3.269-.909-.788-2.125-1.181-3.648-1.181h-6.373v9.255zm28.655 15.004c-1.978 0-3.742-.393-5.292-1.181a9.083 9.083 0 01-3.607-3.466c-.882-1.496-1.323-3.269-1.323-5.316v-.591c0-2.048.441-3.807 1.323-5.277a9.083 9.083 0 013.607-3.466c1.55-.814 3.314-1.221 5.292-1.221 1.977 0 3.74.407 5.29 1.22a9.016 9.016 0 013.648 3.466c.882 1.47 1.323 3.23 1.323 5.278v.59c0 2.048-.44 3.82-1.323 5.317a9.016 9.016 0 01-3.647 3.466c-1.55.788-3.314 1.181-5.291 1.181zm0-3.623c1.817 0 3.287-.564 4.409-1.693 1.149-1.155 1.724-2.744 1.724-4.766v-.354c0-2.022-.562-3.597-1.684-4.726-1.122-1.155-2.605-1.733-4.45-1.733-1.79 0-3.26.578-4.409 1.733-1.122 1.129-1.683 2.704-1.683 4.726v.354c0 2.022.56 3.61 1.683 4.766 1.15 1.129 2.62 1.693 4.41 1.693zm23.498 3.623c-2.512 0-4.596-.551-6.253-1.654-1.657-1.102-2.672-2.77-3.046-5.001l3.848-.906c.214 1.076.574 1.93 1.082 2.56a4.142 4.142 0 001.884 1.339 7.698 7.698 0 002.485.394c1.31 0 2.312-.25 3.007-.749.721-.498 1.082-1.142 1.082-1.93 0-.787-.334-1.365-1.002-1.732-.668-.368-1.657-.67-2.966-.906l-1.363-.236c-1.336-.237-2.552-.578-3.648-1.024-1.096-.447-1.964-1.064-2.605-1.851-.642-.788-.962-1.799-.962-3.033 0-1.838.694-3.255 2.084-4.253 1.39-1.024 3.233-1.536 5.532-1.536 2.218 0 4.035.499 5.451 1.497 1.443.971 2.378 2.297 2.806 3.977l-3.848 1.064c-.241-1.182-.748-2.009-1.523-2.482-.775-.498-1.737-.748-2.886-.748-1.123 0-2.005.21-2.646.63-.641.394-.962.959-.962 1.694 0 .787.307 1.365.922 1.732.641.368 1.496.644 2.565.828l1.403.236a22.63 22.63 0 013.889.984c1.175.42 2.097 1.024 2.765 1.812.695.788 1.043 1.838 1.043 3.15 0 1.944-.735 3.453-2.205 4.53-1.47 1.076-3.447 1.614-5.933 1.614zm12.963-.551V11.106h4.129v19.416h-4.129zm2.085-22.054c-.802 0-1.483-.25-2.045-.749-.534-.525-.801-1.194-.801-2.008 0-.814.267-1.47.801-1.97.562-.524 1.243-.787 2.045-.787.828 0 1.51.263 2.044.788.534.499.802 1.155.802 1.969 0 .814-.268 1.483-.802 2.008-.534.5-1.216.749-2.044.749zm15.587 22.054c-1.203 0-2.165-.354-2.886-1.063-.695-.71-1.042-1.654-1.042-2.836v-12.09h-5.452v-3.427h5.452v-6.42h4.128v6.42h5.893v3.427h-5.893v11.381c0 .788.374 1.182 1.123 1.182h4.128v3.426h-5.451zm10.943 0V11.106h4.129v19.416h-4.129zm2.085-22.054c-.802 0-1.483-.25-2.045-.749-.534-.525-.801-1.194-.801-2.008 0-.814.267-1.47.801-1.97.562-.524 1.243-.787 2.045-.787.828 0 1.51.263 2.044.788.534.499.802 1.155.802 1.969 0 .814-.268 1.483-.802 2.008-.534.5-1.216.749-2.044.749zm12.741 22.054l-6.654-19.416h4.369l5.251 16.423h.641l5.252-16.423h4.369l-6.654 19.416h-6.574zm24.81.354c-1.497 0-2.833-.328-4.009-.984a7.03 7.03 0 01-2.765-2.796c-.668-1.208-1.002-2.652-1.002-4.332V11.106h4.128v11.382c0 1.68.428 2.927 1.283 3.741.855.788 2.044 1.182 3.567 1.182 1.684 0 3.033-.552 4.049-1.654 1.042-1.13 1.563-2.744 1.563-4.844v-9.807h4.129v19.416h-4.049v-2.914h-.641c-.374.787-1.042 1.536-2.004 2.244-.962.683-2.378 1.024-4.249 1.024zm25.143.197c-2.512 0-4.596-.551-6.253-1.654-1.657-1.102-2.672-2.77-3.046-5.001l3.848-.906c.213 1.076.574 1.93 1.082 2.56a4.142 4.142 0 001.884 1.339 7.694 7.694 0 002.485.394c1.31 0 2.312-.25 3.006-.749.722-.498 1.083-1.142 1.083-1.93 0-.787-.334-1.365-1.002-1.732-.668-.368-1.657-.67-2.967-.906l-1.362-.236c-1.337-.237-2.552-.578-3.648-1.024-1.096-.447-1.964-1.064-2.606-1.851-.641-.788-.962-1.799-.962-3.033 0-1.838.695-3.255 2.085-4.253 1.389-1.024 3.233-1.536 5.531-1.536 2.218 0 4.036.499 5.452 1.497 1.443.971 2.378 2.297 2.806 3.977l-3.848 1.064c-.241-1.182-.749-2.009-1.524-2.482-.774-.498-1.737-.748-2.886-.748-1.122 0-2.004.21-2.645.63-.642.394-.962.959-.962 1.694 0 .787.307 1.365.922 1.732.641.368 1.496.644 2.565.828l1.403.236c1.416.236 2.712.564 3.888.984 1.176.42 2.098 1.024 2.766 1.812.695.788 1.042 1.838 1.042 3.15 0 1.944-.735 3.453-2.204 4.53-1.47 1.076-3.448 1.614-5.933 1.614z" fill="#fff"/><defs><clipPath id="clip0_341_656"><path fill="#fff" d="M0 0h36.076v35.444H0z"/></clipPath></defs></svg>